<svg xmlns="http://www.w3.org/2000/svg" viewBox="0 0 1200 720" role="img" aria-labelledby="title desc">
  <title id="title">Frog Fly Feast hero art</title>
  <desc id="desc">A cheerful frog leaping across a moonlit pond, avoiding snakes while catching glowing flies.</desc>
  <defs>
    <linearGradient id="sky" x1="0" x2="0" y1="0" y2="1">
      <stop offset="0%" stop-color="#0f1535" />
      <stop offset="100%" stop-color="#1c3658" />
    </linearGradient>
    <radialGradient id="moonGlow" cx="0.76" cy="0.18" r="0.35">
      <stop offset="0%" stop-color="#fef9c3" stop-opacity="0.95" />
      <stop offset="60%" stop-color="#fde047" stop-opacity="0.6" />
      <stop offset="100%" stop-color="#fde047" stop-opacity="0" />
    </radialGradient>
    <radialGradient id="pond" cx="0.5" cy="0.6" r="0.6">
      <stop offset="0%" stop-color="#175e6b" />
      <stop offset="65%" stop-color="#0f4151" />
      <stop offset="100%" stop-color="#092835" />
    </radialGradient>
    <linearGradient id="snakeBody" x1="0" x2="1" y1="0" y2="0">
      <stop offset="0%" stop-color="#52a34a" />
      <stop offset="100%" stop-color="#2d6b33" />
    </linearGradient>
    <filter id="softGlow" x="-50%" y="-50%" width="200%" height="200%">
      <feGaussianBlur stdDeviation="8" result="blur" />
      <feMerge>
        <feMergeNode in="blur" />
        <feMergeNode in="SourceGraphic" />
      </feMerge>
    </filter>
  </defs>
  <rect width="1200" height="720" fill="url(#sky)" />
  <rect width="1200" height="720" fill="url(#moonGlow)" />
  <ellipse cx="960" cy="120" rx="110" ry="110" fill="#fef3c7" opacity="0.7" />
  <ellipse cx="600" cy="520" rx="460" ry="220" fill="url(#pond)" />
  <g fill="#0c2534" opacity="0.55">
    <ellipse cx="220" cy="560" rx="120" ry="38" />
    <ellipse cx="1040" cy="590" rx="140" ry="42" />
  </g>
  <g>
    <path d="M180 350 Q230 300 320 320" stroke="url(#snakeBody)" stroke-width="24" stroke-linecap="round" fill="none" />
    <path d="M260 340 Q270 325 288 330" stroke="#f87171" stroke-width="10" stroke-linecap="round" fill="none" />
    <circle cx="320" cy="320" r="16" fill="#facc15" />
    <circle cx="320" cy="320" r="8" fill="#1c1917" />
  </g>
  <g>
    <path d="M860 420 Q930 470 1040 450" stroke="url(#snakeBody)" stroke-width="26" stroke-linecap="round" fill="none" />
    <path d="M960 448 Q974 440 982 446" stroke="#f87171" stroke-width="10" stroke-linecap="round" fill="none" />
    <circle cx="1040" cy="450" r="18" fill="#facc15" />
    <circle cx="1040" cy="450" r="9" fill="#1c1917" />
  </g>
  <g filter="url(#softGlow)">
    <circle cx="420" cy="200" r="14" fill="#fde047" />
    <circle cx="520" cy="180" r="10" fill="#fde047" opacity="0.8" />
    <circle cx="700" cy="160" r="12" fill="#fde047" opacity="0.9" />
  </g>
  <g>
    <ellipse cx="600" cy="480" rx="130" ry="48" fill="#0d2531" opacity="0.6" />
    <g transform="translate(600 420)">
      <g filter="url(#softGlow)">
        <ellipse cx="0" cy="45" rx="82" ry="30" fill="#1f5137" opacity="0.85" />
      </g>
      <g>
        <ellipse cx="0" cy="0" rx="68" ry="44" fill="#30b26d" />
        <ellipse cx="-28" cy="-8" rx="20" ry="18" fill="#fef3c7" />
        <ellipse cx="28" cy="-8" rx="20" ry="18" fill="#fef3c7" />
        <circle cx="-28" cy="-8" r="7" fill="#1c1917" />
        <circle cx="28" cy="-8" r="7" fill="#1c1917" />
        <path d="M-36 18 Q0 42 36 18" fill="#f97316" />
        <path d="M-52 -20 Q0 -64 56 -22" fill="#22c55e" />
        <circle cx="60" cy="-12" r="12" fill="#fde047" />
        <circle cx="-66" cy="-14" r="14" fill="#fde047" />
      </g>
    </g>
  </g>
  <text x="120" y="640" fill="#fef9c3" font-family="'Baloo 2', 'Nunito', sans-serif" font-size="64" font-weight="700">
    Frog Fly Feast
  </text>
  <text x="120" y="684" fill="#a5f3fc" font-family="'Nunito', sans-serif" font-size="28">
    Time leaps between snakes and snap up glowing flies.
  </text>
</svg>
