<svg width="640" height="360" viewBox="0 0 640 360" xmlns="http://www.w3.org/2000/svg" role="img" aria-labelledby="title1 desc1">
  <title id="title1">Alien Unicorn Alliance gameplay screenshot</title>
  <desc id="desc1">The unicorn dashes through crystals while an alien saucer fires a beam above a luminous meadow.</desc>
  <defs>
    <linearGradient id="bg1" x1="0" y1="0" x2="0" y2="1">
      <stop offset="0" stop-color="#0c0f2c" />
      <stop offset="0.45" stop-color="#1c1845" />
      <stop offset="1" stop-color="#28113b" />
    </linearGradient>
    <radialGradient id="neb1" cx="0.25" cy="0.3" r="0.6">
      <stop offset="0" stop-color="#6d48ff" stop-opacity="0.8" />
      <stop offset="1" stop-color="#28113b" stop-opacity="0" />
    </radialGradient>
    <radialGradient id="neb2" cx="0.75" cy="0.45" r="0.5">
      <stop offset="0" stop-color="#46e8ff" stop-opacity="0.8" />
      <stop offset="1" stop-color="#28113b" stop-opacity="0" />
    </radialGradient>
    <linearGradient id="ground1" x1="0" y1="0" x2="0" y2="1">
      <stop offset="0" stop-color="#40256e" stop-opacity="0" />
      <stop offset="0.4" stop-color="#40256e" stop-opacity="0.4" />
      <stop offset="1" stop-color="#1c0f3a" stop-opacity="0.8" />
    </linearGradient>
    <radialGradient id="beam1" cx="0.5" cy="0" r="1">
      <stop offset="0" stop-color="#5cf4ff" stop-opacity="0.7" />
      <stop offset="1" stop-color="#5cf4ff" stop-opacity="0" />
    </radialGradient>
    <linearGradient id="crystal1" x1="0" y1="0" x2="0" y2="1">
      <stop offset="0" stop-color="#fff4be" />
      <stop offset="0.5" stop-color="#ffd8ff" />
      <stop offset="1" stop-color="#6effff" />
    </linearGradient>
  </defs>
  <rect width="640" height="360" fill="url(#bg1)" />
  <ellipse cx="180" cy="100" rx="240" ry="180" fill="url(#neb1)" />
  <ellipse cx="460" cy="180" rx="260" ry="210" fill="url(#neb2)" />
  <path d="M0 250 C120 260 220 250 360 270 C480 285 560 280 640 265 L640 360 L0 360 Z" fill="url(#ground1)" />
  <g opacity="0.45" fill="#a6d3ff">
    <circle cx="80" cy="40" r="1.6" />
    <circle cx="160" cy="60" r="1.4" />
    <circle cx="220" cy="20" r="1.2" />
    <circle cx="300" cy="50" r="1.5" />
    <circle cx="520" cy="70" r="1.8" />
    <circle cx="580" cy="30" r="1.4" />
    <circle cx="440" cy="40" r="1.1" />
  </g>
  <g transform="translate(460 110)">
    <ellipse cx="0" cy="64" rx="90" ry="30" fill="url(#beam1)" />
    <ellipse cx="0" cy="0" rx="100" ry="40" fill="#41d6ff" fill-opacity="0.2" />
    <ellipse cx="0" cy="0" rx="96" ry="32" fill="url(#beam1)" opacity="0.5" />
    <ellipse cx="0" cy="0" rx="84" ry="28" fill="url(#crystal1)" opacity="0.6" />
    <ellipse cx="0" cy="-16" rx="44" ry="22" fill="#c5eaff" fill-opacity="0.85" />
  </g>
  <g transform="translate(210 160)">
    <circle cx="-20" cy="0" r="90" fill="rgba(255, 158, 255, 0.28)" />
    <path d="M-70 20 C-120 -20 -90 -60 -30 -40 C-80 -70 -80 -120 0 -80 C40 -110 100 -110 150 -70 C190 -30 170 30 120 50 C40 80 -40 60 -70 20" fill="#ffcafe" opacity="0.55" />
    <path d="M-50 10 C-20 40 60 60 120 20 C150 -5 140 -40 100 -50 C60 -60 20 -40 0 -20" fill="#fff4ff" />
    <ellipse cx="118" cy="-22" rx="28" ry="24" fill="#fff" />
    <ellipse cx="124" cy="-24" rx="5" ry="7" fill="#160b2d" />
    <circle cx="126" cy="-26" r="1.6" fill="#fff" />
    <path d="M135 -40 L150 -88 L124 -38 Z" fill="#ffd8ff" />
    <path d="M-30 40 C10 90 40 80 45 50" stroke="#f6defe" stroke-width="10" stroke-linecap="round" fill="none" />
    <path d="M0 55 C20 95 50 90 55 65" stroke="#f6defe" stroke-width="9" stroke-linecap="round" fill="none" />
  </g>
  <g transform="translate(340 220)">
    <path d="M0 -30 L18 0 L0 30 L-18 0 Z" fill="url(#crystal1)" stroke="rgba(255,255,255,0.5)" stroke-width="1.5" />
  </g>
  <g transform="translate(390 250)">
    <path d="M0 -26 L16 0 L0 26 L-16 0 Z" fill="url(#crystal1)" stroke="rgba(255,255,255,0.5)" stroke-width="1.5" />
  </g>
  <g transform="translate(420 210) scale(0.85)">
    <path d="M0 -26 L16 0 L0 26 L-16 0 Z" fill="url(#crystal1)" stroke="rgba(255,255,255,0.5)" stroke-width="1.5" />
  </g>
  <g transform="translate(520 220)">
    <ellipse cx="0" cy="0" rx="32" ry="12" fill="#4ff2ff" opacity="0.4" />
    <ellipse cx="0" cy="-6" rx="54" ry="18" fill="#5a50ff" opacity="0.65" />
    <ellipse cx="0" cy="-18" rx="32" ry="18" fill="#c4e8ff" />
  </g>
  <text x="28" y="320" font-family="'Poppins', 'Segoe UI', sans-serif" font-size="20" fill="#bcd1ff" letter-spacing="1.5">Combo x12 • Pulse ready • Shields 2</text>
</svg>
