<svg width="800" height="480" viewBox="0 0 800 480" xmlns="http://www.w3.org/2000/svg">
  <defs>
    <linearGradient id="panelBg" x1="0" y1="0" x2="1" y2="1">
      <stop offset="0%" stop-color="#eff6ff" />
      <stop offset="100%" stop-color="#e0f2fe" />
    </linearGradient>
    <linearGradient id="accent" x1="0" y1="0" x2="1" y2="1">
      <stop offset="0%" stop-color="#38bdf8" />
      <stop offset="100%" stop-color="#a855f7" />
    </linearGradient>
  </defs>
  <rect width="800" height="480" fill="#f5f7ff" />
  <g transform="translate(60,70)">
    <rect width="680" height="340" rx="28" fill="url(#panelBg)" stroke="rgba(99,102,241,0.2)" stroke-width="3" />
    <circle cx="120" cy="120" r="70" fill="url(#accent)" opacity="0.35" />
    <circle cx="540" cy="230" r="96" fill="url(#accent)" opacity="0.25" />
    <circle cx="340" cy="180" r="60" fill="url(#accent)" opacity="0.2" />
    <g transform="translate(80,100)">
      <rect width="220" height="240" rx="18" fill="#fff" stroke="rgba(59,130,246,0.3)" stroke-width="2" />
      <text x="110" y="60" text-anchor="middle" font-family="'Baloo 2', sans-serif" font-size="70">🦉</text>
      <text x="110" y="120" text-anchor="middle" font-family="'Baloo 2', sans-serif" font-size="20" fill="#1f2937">Luna</text>
      <text x="110" y="160" text-anchor="middle" font-family="'Inter', sans-serif" font-size="12" fill="#475569">Wise stargazing owl</text>
      <rect x="40" y="190" width="140" height="10" rx="5" fill="rgba(59,130,246,0.15)" />
      <rect x="40" y="190" width="110" height="10" rx="5" fill="url(#accent)" />
    </g>
    <g transform="translate(340,120)">
      <rect width="280" height="190" rx="20" fill="#fff" stroke="rgba(148,163,209,0.25)" stroke-width="2" />
      <text x="24" y="38" font-family="'Inter', sans-serif" font-size="12" fill="#6366f1">Luna • Now</text>
      <text x="24" y="68" font-family="'Inter', sans-serif" font-size="18" fill="#0f172a">Hoo! The stars are sparkling for you tonight.</text>
      <text x="24" y="112" font-family="'Inter', sans-serif" font-size="14" fill="#334155">Let&apos;s pick a constellation to explore together.</text>
      <rect x="24" y="140" width="160" height="12" rx="6" fill="rgba(59,130,246,0.1)" />
      <rect x="24" y="160" width="210" height="12" rx="6" fill="rgba(99,102,241,0.12)" />
    </g>
  </g>
</svg>
